<?xml version="1.0" encoding="UTF-8"?>
<svg width="24px" height="24px" viewBox="0 0 24 24" version="1.1" xmlns="http://www.w3.org/2000/svg" xmlns:xlink="http://www.w3.org/1999/xlink">
    <!-- Generator: sketchtool 63.1 (101010) - https://sketch.com -->
    <title>7CD7F22B-BAC9-4838-BE72-838ED7CCD4EC</title>
    <desc>Created with sketchtool.</desc>
    <g id="UI" stroke="none" stroke-width="1" fill="none" fill-rule="evenodd">
        <g id="Login-/-blank" transform="translate(-904.000000, -291.000000)" fill="#292B30">
            <g id="Login-/-Blank">
                <g id="Group-4" transform="translate(853.000000, 121.000000)">
                    <g id="Group-3" transform="translate(51.000000, 32.000000)">
                        <g id="Group-2" transform="translate(0.000000, 126.000000)">
                            <g id="Icon-/-Level-0-/-User-Authentication" transform="translate(0.000000, 11.000000)">
                                <g id="Group" transform="translate(12.151527, 13.301264) rotate(-352.000000) translate(-12.151527, -13.301264) translate(2.651527, 1.301264)">
                                    <path d="M12.3459038,0.247931803 C14.8738066,-0.415547877 17.4747428,1.05564442 18.1546068,3.54099253 C18.5766614,5.08446537 18.1580183,6.65354142 17.1755011,7.78159488 C17.3771179,8.06462163 17.5543538,8.3658094 17.70557,8.68062056 C18.1062365,9.51475261 18.3168881,10.4283654 18.3168881,11.3703148 C18.3168881,14.8603263 15.4335718,17.6851574 11.8821055,17.6851574 C10.7583323,17.6851574 9.70145758,17.4023216 8.78166222,16.9050721 L6.73565284,17.9681592 L5.8480441,20.1832316 L4.35091453,21.3650946 L3.80504847,23.3586911 L0.521739162,23.3586911 L0.521739162,19.9728869 L6.22569443,14.3836749 C5.72937085,13.4883392 5.4473229,12.4618612 5.4473229,11.3703148 C5.4473229,8.92253565 6.86567174,6.80196917 8.93810706,5.75372421 C8.39058832,3.3309158 9.88303498,0.894596676 12.3459038,0.247931803 Z M6.81725635,15.2659849 L1.56521736,20.4113858 L1.56521736,22.3152129 L3.00887591,22.3152129 L3.43508187,20.7586356 L4.98298418,19.5366916 L5.91098719,17.2208134 L7.79047438,16.2443453 C7.43133799,15.9536944 7.1048523,15.6255468 6.81725635,15.2659849 Z M11.8821055,6.09895049 C8.90220434,6.09895049 6.4908011,8.46144089 6.4908011,11.3703148 C6.4908011,14.2791888 8.90220434,16.6416792 11.8821055,16.6416792 C14.8620066,16.6416792 17.2734099,14.2791888 17.2734099,11.3703148 C17.2734099,10.5857528 17.0983332,9.82643101 16.7649749,9.13242546 C16.658259,8.91025764 16.5359086,8.69609818 16.3991392,8.49140736 C16.1638282,8.66478648 15.9101014,8.81625901 15.6400349,8.94433214 C15.7320595,9.18258643 15.7827266,9.44292948 15.7827266,9.71514243 C15.7827266,10.9198376 14.7903816,11.8920539 13.5715465,11.8920539 C12.3527114,11.8920539 11.3603664,10.9198376 11.3603664,9.71514243 C11.3603664,8.51044721 12.3527114,7.53823092 13.5715465,7.53823092 C14.1267777,7.53823092 14.6350079,7.73998424 15.023838,8.07356077 C15.2787915,7.97064342 15.516781,7.83880055 15.7351727,7.68514508 C15.6142459,7.5624497 15.486401,7.44639405 15.3528289,7.33640004 C14.3879877,6.54187245 13.1708128,6.09895049 11.8821055,6.09895049 Z M13.5715465,8.58170911 C12.9242766,8.58170911 12.4038446,9.09158468 12.4038446,9.71514243 C12.4038446,10.3387002 12.9242766,10.8485757 13.5715465,10.8485757 C14.2188164,10.8485757 14.7392484,10.3387002 14.7392484,9.71514243 C14.7392484,9.55566281 14.7052059,9.40361936 14.6437056,9.26564025 C14.4193182,9.25825806 14.2195742,9.10573973 14.1600726,8.87910175 C14.146817,8.828612 14.141431,8.77790738 14.1431552,8.72828772 C13.9761364,8.63481879 13.7804473,8.58170911 13.5715465,8.58170911 Z M17.1480336,3.81628673 C16.620265,1.88676394 14.5892869,0.737962475 12.6108706,1.25727337 C10.7487548,1.74615336 9.60399375,3.53678046 9.92149221,5.35412904 C10.5399398,5.16008803 11.1986504,5.05547229 11.8821055,5.05547229 C13.4145256,5.05547229 14.865768,5.58356984 16.0161519,6.53088822 C16.1834156,6.6686265 16.3432049,6.81437286 16.494956,6.96746321 C17.1800812,6.10560653 17.4583834,4.95114248 17.1480336,3.81628673 Z" id="Combined-Shape"></path>
                                </g>
                            </g>
                        </g>
                    </g>
                </g>
            </g>
        </g>
    </g>
</svg>