<?xml version="1.0" encoding="UTF-8"?>
<svg width="24px" height="24px" viewBox="0 0 24 24" version="1.1" xmlns="http://www.w3.org/2000/svg" xmlns:xlink="http://www.w3.org/1999/xlink">
    <!-- Generator: sketchtool 63.1 (101010) - https://sketch.com -->
    <title>988187C3-0711-4722-B781-968CBF862C92</title>
    <desc>Created with sketchtool.</desc>
    <g id="UI" stroke="none" stroke-width="1" fill="none" fill-rule="evenodd">
        <g id="Login-/-blank" transform="translate(-904.000000, -227.000000)">
            <g id="Login-/-Blank">
                <g id="Group-4" transform="translate(853.000000, 121.000000)">
                    <g id="Group-3" transform="translate(51.000000, 32.000000)">
                        <g id="Group" transform="translate(0.000000, 62.000000)">
                            <g id="Icon-/-Level-0-/-Profile" transform="translate(0.000000, 12.000000)">
                                <g>
                                    <rect id="container" x="0" y="0" width="24" height="24"></rect>
                                    <path d="M14.5425128,13.3523345 C16.7327256,13.3523345 18.6927331,14.9246277 19.4224934,17.2648934 L20.9724185,22.2436666 C21.0674831,22.5512284 20.8969261,22.8774303 20.5893643,22.9734269 C20.5315799,22.991135 20.4737956,22.9995231 20.4160113,22.9995231 C20.1671658,22.9995231 19.9369604,22.8392181 19.859604,22.5903727 L18.3096789,17.6106675 C17.7336995,15.7606366 16.2191906,14.5173413 14.5425128,14.5173413 L9.45562696,14.5173413 C7.77894912,14.5173413 6.26444024,15.7606366 5.68846086,17.6106675 L4.13853576,22.5903727 C4.04440321,22.8970025 3.71540528,23.0694235 3.40970749,22.9734269 C3.10214568,22.8774303 2.93065668,22.5512284 3.02665324,22.2436666 L4.57657833,17.2648934 C5.30540661,14.9246277 7.26634611,13.3523345 9.45562696,13.3523345 L14.5425128,13.3523345 Z M11.9988835,1 C15.1313539,1 17.6803888,3.54810295 17.6803888,6.68150533 C17.6803888,9.81397571 15.1313539,12.3620787 11.9988835,12.3620787 C8.8664131,12.3620787 6.31737815,9.81397571 6.31737815,6.68150533 C6.31737815,3.54810295 8.8664131,1 11.9988835,1 Z M11.9988835,2.16500683 C9.50856487,2.16500683 7.48238498,4.19118672 7.48238498,6.68150533 C7.48238498,9.17182394 9.50856487,11.1970718 11.9988835,11.1970718 C14.4892021,11.1970718 16.515382,9.17182394 16.515382,6.68150533 C16.515382,4.19118672 14.4892021,2.16500683 11.9988835,2.16500683 Z" id="Combined-Shape" fill="#292B30"></path>
                                </g>
                            </g>
                        </g>
                    </g>
                </g>
            </g>
        </g>
    </g>
</svg>